<mxfile host="app.diagrams.net" modified="2020-09-18T13:06:39.838Z" agent="5.0 (Windows NT 10.0; Win64; x64) AppleWebKit/537.36 (KHTML, like Gecko) Chrome/85.0.4183.102 Safari/537.36" etag="-7xzHdik1BO7IRwFqcyr" version="13.7.3" type="github">
  <diagram id="q1sX0XHCinENVLS0Z8PO" name="Page-1">
    <mxGraphModel dx="1888" dy="1648" grid="1" gridSize="10" guides="1" tooltips="1" connect="1" arrows="1" fold="1" page="1" pageScale="1" pageWidth="850" pageHeight="1100" math="0" shadow="0">
      <root>
        <mxCell id="0" />
        <mxCell id="1" parent="0" />
        <mxCell id="fMQO-DUGGEPsRweQEfmz-5" value="" style="edgeStyle=orthogonalEdgeStyle;rounded=0;orthogonalLoop=1;jettySize=auto;html=1;entryX=0.5;entryY=0;entryDx=0;entryDy=0;" parent="1" source="fMQO-DUGGEPsRweQEfmz-3" target="UCcUYj3M6VC5iTICgqAa-3" edge="1">
          <mxGeometry relative="1" as="geometry">
            <mxPoint x="-720" y="-930" as="targetPoint" />
          </mxGeometry>
        </mxCell>
        <mxCell id="fMQO-DUGGEPsRweQEfmz-3" value="Start" style="ellipse;whiteSpace=wrap;html=1;" parent="1" vertex="1">
          <mxGeometry x="-780" y="-1100" width="120" height="80" as="geometry" />
        </mxCell>
        <mxCell id="UCcUYj3M6VC5iTICgqAa-2" value="" style="edgeStyle=orthogonalEdgeStyle;rounded=0;orthogonalLoop=1;jettySize=auto;html=1;exitX=0.5;exitY=1;exitDx=0;exitDy=0;" edge="1" parent="1" source="UCcUYj3M6VC5iTICgqAa-3" target="UCcUYj3M6VC5iTICgqAa-1">
          <mxGeometry relative="1" as="geometry">
            <mxPoint x="-720" y="-870" as="sourcePoint" />
          </mxGeometry>
        </mxCell>
        <mxCell id="UCcUYj3M6VC5iTICgqAa-5" value="" style="edgeStyle=orthogonalEdgeStyle;rounded=0;orthogonalLoop=1;jettySize=auto;html=1;" edge="1" parent="1" source="UCcUYj3M6VC5iTICgqAa-1" target="UCcUYj3M6VC5iTICgqAa-6">
          <mxGeometry relative="1" as="geometry">
            <mxPoint x="-720" y="-690" as="targetPoint" />
          </mxGeometry>
        </mxCell>
        <mxCell id="UCcUYj3M6VC5iTICgqAa-1" value="Year con" style="shape=parallelogram;perimeter=parallelogramPerimeter;whiteSpace=wrap;html=1;fixedSize=1;" vertex="1" parent="1">
          <mxGeometry x="-780" y="-900" width="120" height="60" as="geometry" />
        </mxCell>
        <mxCell id="UCcUYj3M6VC5iTICgqAa-3" value="Starting balance" style="shape=parallelogram;perimeter=parallelogramPerimeter;whiteSpace=wrap;html=1;fixedSize=1;" vertex="1" parent="1">
          <mxGeometry x="-780" y="-990" width="120" height="60" as="geometry" />
        </mxCell>
        <mxCell id="UCcUYj3M6VC5iTICgqAa-11" value="" style="edgeStyle=orthogonalEdgeStyle;rounded=0;orthogonalLoop=1;jettySize=auto;html=1;" edge="1" parent="1" source="UCcUYj3M6VC5iTICgqAa-6" target="UCcUYj3M6VC5iTICgqAa-10">
          <mxGeometry relative="1" as="geometry" />
        </mxCell>
        <mxCell id="UCcUYj3M6VC5iTICgqAa-6" value="ARI%" style="shape=parallelogram;perimeter=parallelogramPerimeter;whiteSpace=wrap;html=1;fixedSize=1;" vertex="1" parent="1">
          <mxGeometry x="-780" y="-800" width="120" height="60" as="geometry" />
        </mxCell>
        <mxCell id="UCcUYj3M6VC5iTICgqAa-13" value="" style="edgeStyle=orthogonalEdgeStyle;rounded=0;orthogonalLoop=1;jettySize=auto;html=1;" edge="1" parent="1" source="UCcUYj3M6VC5iTICgqAa-10" target="UCcUYj3M6VC5iTICgqAa-12">
          <mxGeometry relative="1" as="geometry" />
        </mxCell>
        <mxCell id="UCcUYj3M6VC5iTICgqAa-10" value="Number of Years" style="shape=parallelogram;perimeter=parallelogramPerimeter;whiteSpace=wrap;html=1;fixedSize=1;" vertex="1" parent="1">
          <mxGeometry x="-780" y="-700" width="120" height="60" as="geometry" />
        </mxCell>
        <mxCell id="UCcUYj3M6VC5iTICgqAa-15" value="" style="edgeStyle=orthogonalEdgeStyle;rounded=0;orthogonalLoop=1;jettySize=auto;html=1;" edge="1" parent="1" source="UCcUYj3M6VC5iTICgqAa-12" target="UCcUYj3M6VC5iTICgqAa-14">
          <mxGeometry relative="1" as="geometry" />
        </mxCell>
        <mxCell id="UCcUYj3M6VC5iTICgqAa-12" value="Copy Start balance to balance" style="whiteSpace=wrap;html=1;" vertex="1" parent="1">
          <mxGeometry x="-780" y="-610" width="120" height="60" as="geometry" />
        </mxCell>
        <mxCell id="UCcUYj3M6VC5iTICgqAa-17" value="" style="edgeStyle=orthogonalEdgeStyle;rounded=0;orthogonalLoop=1;jettySize=auto;html=1;" edge="1" parent="1" source="UCcUYj3M6VC5iTICgqAa-14" target="UCcUYj3M6VC5iTICgqAa-16">
          <mxGeometry relative="1" as="geometry" />
        </mxCell>
        <mxCell id="UCcUYj3M6VC5iTICgqAa-14" value="Int=(Bal + Year con) * (ARI% / 100)" style="whiteSpace=wrap;html=1;" vertex="1" parent="1">
          <mxGeometry x="-780" y="-520" width="120" height="60" as="geometry" />
        </mxCell>
        <mxCell id="UCcUYj3M6VC5iTICgqAa-19" value="" style="edgeStyle=orthogonalEdgeStyle;rounded=0;orthogonalLoop=1;jettySize=auto;html=1;" edge="1" parent="1" source="UCcUYj3M6VC5iTICgqAa-16" target="UCcUYj3M6VC5iTICgqAa-18">
          <mxGeometry relative="1" as="geometry" />
        </mxCell>
        <mxCell id="UCcUYj3M6VC5iTICgqAa-16" value="Bal= Bal + YC + INT" style="whiteSpace=wrap;html=1;" vertex="1" parent="1">
          <mxGeometry x="-780" y="-430" width="120" height="60" as="geometry" />
        </mxCell>
        <mxCell id="UCcUYj3M6VC5iTICgqAa-21" value="yes" style="edgeStyle=orthogonalEdgeStyle;rounded=0;orthogonalLoop=1;jettySize=auto;html=1;" edge="1" parent="1" source="UCcUYj3M6VC5iTICgqAa-18" target="UCcUYj3M6VC5iTICgqAa-20">
          <mxGeometry relative="1" as="geometry" />
        </mxCell>
        <mxCell id="UCcUYj3M6VC5iTICgqAa-23" value="No" style="edgeStyle=orthogonalEdgeStyle;rounded=0;orthogonalLoop=1;jettySize=auto;html=1;" edge="1" parent="1" source="UCcUYj3M6VC5iTICgqAa-18" target="UCcUYj3M6VC5iTICgqAa-22">
          <mxGeometry relative="1" as="geometry" />
        </mxCell>
        <mxCell id="UCcUYj3M6VC5iTICgqAa-18" value="Year counter= number of year" style="rhombus;whiteSpace=wrap;html=1;" vertex="1" parent="1">
          <mxGeometry x="-760" y="-340" width="80" height="80" as="geometry" />
        </mxCell>
        <mxCell id="UCcUYj3M6VC5iTICgqAa-20" value="End of pro" style="ellipse;whiteSpace=wrap;html=1;" vertex="1" parent="1">
          <mxGeometry x="-780" y="-190" width="120" height="80" as="geometry" />
        </mxCell>
        <mxCell id="UCcUYj3M6VC5iTICgqAa-24" style="edgeStyle=orthogonalEdgeStyle;rounded=0;orthogonalLoop=1;jettySize=auto;html=1;entryX=0.5;entryY=0;entryDx=0;entryDy=0;" edge="1" parent="1" source="UCcUYj3M6VC5iTICgqAa-22" target="UCcUYj3M6VC5iTICgqAa-14">
          <mxGeometry relative="1" as="geometry">
            <Array as="points">
              <mxPoint x="-560" y="-540" />
              <mxPoint x="-720" y="-540" />
            </Array>
          </mxGeometry>
        </mxCell>
        <mxCell id="UCcUYj3M6VC5iTICgqAa-22" value="Display year total" style="shape=parallelogram;perimeter=parallelogramPerimeter;whiteSpace=wrap;html=1;fixedSize=1;" vertex="1" parent="1">
          <mxGeometry x="-620" y="-330" width="120" height="60" as="geometry" />
        </mxCell>
        <mxCell id="UCcUYj3M6VC5iTICgqAa-25" value="Add one to year counter" style="rounded=0;whiteSpace=wrap;html=1;" vertex="1" parent="1">
          <mxGeometry x="-620" y="-460" width="120" height="60" as="geometry" />
        </mxCell>
      </root>
    </mxGraphModel>
  </diagram>
</mxfile>
